<svg xmlns="http://www.w3.org/2000/svg" fill="#50307B" xmlns:xlink="http://www.w3.org/1999/xlink" version="1.1" x="0px" y="0px" viewBox="0 0 100 125" enable-background="new 0 0 100 100" xml:space="preserve"><path d="M67.147,69.017l4.276-10.189c0.107-0.255-0.013-0.548-0.268-0.654c-0.256-0.107-0.548,0.013-0.654,0.268l-3.391,8.081  c-1.195-19.966-17.811-35.846-38.072-35.846c-0.276,0-0.5,0.224-0.5,0.5s0.224,0.5,0.5,0.5c19.912,0,36.21,15.748,37.105,35.444  l-5.207-7.745c-0.155-0.23-0.467-0.289-0.694-0.136c-0.229,0.154-0.29,0.465-0.136,0.694l6.165,9.171  c0.007,0.01,0.019,0.014,0.027,0.024c0.012,0.016,0.019,0.034,0.033,0.048c0.026,0.026,0.059,0.042,0.09,0.062  c0.018,0.011,0.032,0.025,0.051,0.034c0.065,0.031,0.137,0.052,0.214,0.052c0.091,0,0.171-0.031,0.245-0.073  c0.01-0.006,0.022-0.005,0.031-0.011c0.001-0.001,0.003,0,0.004-0.001c0.014-0.009,0.021-0.023,0.033-0.034  c0.027-0.022,0.049-0.045,0.071-0.072c0.02-0.025,0.037-0.049,0.052-0.077C67.128,69.042,67.141,69.032,67.147,69.017z"/></svg>
